<svg id="Capa_1" enable-background="new 0 0 512 512" height="512" viewBox="0 0 512 512" width="512" xmlns="http://www.w3.org/2000/svg"><g><g><path d="m165.908 381.622h-7.365c-61.154 0-110.73-49.575-110.73-110.73v-86.74h228.824v86.74c0 61.155-49.575 110.73-110.729 110.73z" fill="#ffd0c7"/><path d="m50.649 183.752h223.151v38.222h-223.151z" fill="#dfedff"/><path d="m64.61 330.058s35.697-44.746 87.482-15.586c0 0 52.037-46.003 109.604 11.564 0 0-32.022 57.879-99.471 55.586s-97.615-51.564-97.615-51.564z" fill="#ff7d97"/></g><g><path d="m276.637 174.131h-228.825c-5.535 0-10.021 4.487-10.021 10.021v86.502c0 66.713 54.276 120.989 120.99 120.989h6.889c66.713 0 120.989-54.276 120.989-120.989v-86.502c0-5.535-4.487-10.021-10.022-10.021zm-10.021 20.043v17.779h-208.782v-17.779zm-7.761 115.284c-5.607-4.781-14.722-11.361-26.837-16.14-18.799-7.416-48.611-11.841-84.72 8.339-9.89-4.85-20.121-7.329-30.631-7.394-.14-.001-.276-.001-.416-.001-22.178 0-39.764 10.917-49.24 18.423-5.888-12.804-9.177-27.04-9.177-42.031v-38.658h208.782v38.658c0 13.743-2.765 26.851-7.761 38.804zm-93.185 62.142h-6.889c-33.419 0-63.091-16.327-81.474-41.42 6.311-5.402 21.111-16.065 39.41-15.873 16.127.158 31.927 8.669 46.963 25.297 3.973 4.393 11.102 4.322 14.995-.143 3.29-3.774 3.227-9.588-.128-13.3-3.934-4.351-7.947-8.254-12.03-11.72 45.575-19.979 76.024 6.648 82.489 13.115-18.203 26.573-48.766 44.044-83.336 44.044z"/><path d="m118.298 140.881c4.333 3.329 10.727 2.486 14.052-1.842 1.814-2.362 11.71-14.177 28.38-14.837 19.118-.759 30.888 14.212 31.38 14.849 3.378 4.383 9.671 5.2 14.055 1.82 4.384-3.378 5.199-9.671 1.82-14.055-1.879-2.438-19.206-23.79-48.047-22.641-24.958.986-39.592 17.589-43.482 22.654-3.373 4.389-2.548 10.681 1.842 14.052z"/><path d="m77.698 83.041c3.379 4.383 9.672 5.197 14.056 1.818 4.383-3.379 5.198-9.672 1.818-14.056-1.88-2.438-19.207-23.775-48.046-22.64-24.955.987-39.591 17.589-43.482 22.653-3.054 3.975-2.644 9.791.955 13.287 4.244 4.123 11.337 3.611 14.938-1.075 1.815-2.362 11.712-14.178 28.38-14.837 18.791-.725 30.149 13.252 31.381 14.85z"/><path d="m232.709 84.869c4.334 3.329 10.727 2.487 14.053-1.841 1.815-2.362 11.712-14.178 28.38-14.837 18.831-.734 30.15 13.253 31.382 14.852 3.381 4.384 9.675 5.195 14.056 1.815 4.383-3.38 5.196-9.673 1.816-14.056-1.88-2.437-19.196-23.767-48.045-22.639-24.955.987-39.591 17.589-43.482 22.653-3.373 4.389-2.549 10.681 1.84 14.053z"/><path d="m511.37 292.675-30.764-81.519c-.034-.091-.069-.182-.107-.272-1.842-4.479-6.159-7.372-11.001-7.372-.003 0-.006 0-.009 0-4.846.003-9.164 2.904-11 7.389-.031.076-.062.153-.091.23l-31.046 81.515c-1.97 5.172.625 10.962 5.798 12.932 5.172 1.971 10.962-.626 12.932-5.799l5.274-13.847h36.049l5.215 13.818c2.034 5.392 8.411 7.982 13.636 5.533 4.675-2.189 6.936-7.781 5.114-12.608zm-52.381-26.784 10.473-27.498 10.378 27.498z"/><path d="m342.054 306.235c5.534 0 10.021-4.487 10.021-10.021v-32.736h37.173v32.736c0 5.535 4.487 10.021 10.022 10.021s10.021-4.487 10.021-10.021v-82.68c0-5.535-4.487-10.021-10.021-10.021s-10.022 4.487-10.022 10.021v29.901h-37.173v-29.901c0-5.535-4.487-10.021-10.021-10.021s-10.021 4.487-10.021 10.021v82.68c-.001 5.534 4.487 10.021 10.021 10.021z"/><path d="m437.925 337.904c-.035-.093-.072-.186-.111-.278-1.843-4.475-6.16-7.365-10.999-7.365-.004 0-.008 0-.013 0-4.844.005-9.161 2.905-10.996 7.389-.031.076-.062.153-.091.23l-31.046 81.515c-1.97 5.172.625 10.962 5.798 12.932 5.172 1.969 10.962-.626 12.932-5.799l5.274-13.847h36.048l5.215 13.819c2.035 5.391 8.41 7.981 13.637 5.533 4.676-2.19 6.938-7.782 5.116-12.61zm-21.619 54.735 10.473-27.498 10.377 27.498z"/><path d="m356.586 330.261c-5.534 0-10.021 4.487-10.021 10.021v29.901h-37.173v-29.901c0-5.535-4.487-10.021-10.021-10.021s-10.021 4.487-10.021 10.021v82.68c0 5.535 4.487 10.021 10.021 10.021s10.021-4.487 10.021-10.021v-32.736h37.173v32.736c0 5.535 4.487 10.021 10.021 10.021s10.022-4.487 10.022-10.021v-82.68c0-5.535-4.488-10.021-10.022-10.021z"/><path d="m496.236 417.514c5.534 0 10.022-4.487 10.022-10.022v-65.273c0-5.535-4.487-10.021-10.022-10.021s-10.021 4.487-10.021 10.021v65.273c0 5.535 4.487 10.022 10.021 10.022z"/><path d="m497.047 443.889c-5.523 0-10 4.476-10 9.996 0 5.521 4.477 9.996 10 9.995 5.523 0 10-4.476 10-9.996-.001-5.521-4.477-9.995-10-9.995z"/></g></g></svg>