<svg id="Capa_1" enable-background="new 0 0 512 512" height="512" viewBox="0 0 512 512" width="512" xmlns="http://www.w3.org/2000/svg"><g><g><path d="m199.008 349.851h111.158v87.017h-111.158z" fill="#dae7ef"/></g><g><path d="m234.25 349.851h75.916v87.017h-75.916z" fill="#c1d5e4"/></g><g><path d="m17.466 275.09-9.981 21.55v46.796c0 11.024 8.937 19.961 19.961 19.961h457.107c11.024 0 19.961-8.937 19.961-19.961v-46.796l-9.98-21.55z" fill="#dae7ef"/></g><g><path d="m494.534 275.09h-35.078v23.288c0 11.024-8.937 19.961-19.961 19.961h-432.01v25.097c0 11.024 8.937 19.961 19.961 19.961h457.107c11.024 0 19.961-8.937 19.961-19.961v-46.796z" fill="#c1d5e4"/></g><g><path d="m484.554 33.6h-457.108c-11.024 0-19.961 8.937-19.961 19.961v243.079h497.029v-243.079c.001-11.025-8.936-19.961-19.96-19.961z" fill="#61a2f9"/></g><g><path d="m484.554 33.6h-25.097v263.04h45.058v-243.079c0-11.025-8.937-19.961-19.961-19.961z" fill="#4a81f6"/></g><g><path d="m296.811 119.034-58.542-33.799c-4-2.309-9 .577-9 5.196v67.598c0 4.619 5 7.506 9 5.196l58.542-33.799c4-2.309 4-8.083 0-10.392z" fill="#2b4d66"/></g><g><circle cx="126.911" cy="215.751" fill="#407093" r="21.216"/></g><g><path d="m134.951 196.116c1.017 2.48 1.581 5.193 1.581 8.04 0 11.717-9.499 21.216-21.216 21.216-2.846 0-5.56-.564-8.04-1.581 3.168 7.73 10.764 13.177 19.635 13.177 11.717 0 21.216-9.499 21.216-21.216 0-8.872-5.446-16.468-13.176-19.636z" fill="#2b4d66"/></g><g><path d="m443.698 210.543c-2.555-.266-5.045-.177-7.431.221-2.263.378-4.115-1.79-3.474-3.993.705-2.424 1.084-4.988 1.084-7.64 0-15.113-12.251-27.364-27.364-27.364-.01 0-.02 0-.031 0-1.599.002-2.982-1.14-3.178-2.727-1.773-14.417-14.752-25.366-29.961-23.85-12.162 1.213-22.181 10.614-24.176 22.672-.409 2.473-.475 4.892-.245 7.225.213 2.163-1.706 3.879-3.83 3.418-1.879-.408-3.829-.623-5.83-.623-8.427 0-15.964 3.809-20.984 9.8-1.244 1.485-3.583 1.485-4.826 0-5.02-5.991-12.557-9.8-20.984-9.8-15.113 0-27.364 12.251-27.364 27.364 0 1.591.143 3.147.404 4.663-.135-.002-.268-.01-.404-.01-15.698 0-28.309 13.219-27.308 29.134.852 13.538 11.794 24.567 25.325 25.524 5.843.413 11.325-1.016 15.937-3.756 4.256 2.729 9.314 4.318 14.745 4.318 7.002 0 13.387-2.633 18.226-6.959 4.766 4.032 10.927 6.468 17.659 6.468 3.097 0 6.07-.522 8.846-1.47 4.797 7.907 13.487 13.191 23.411 13.191 10.006 0 18.754-5.374 23.526-13.39 2.94 1.079 6.117 1.669 9.431 1.669 9.506 0 17.877-4.85 22.782-12.208 4.856 7.632 13.382 12.699 23.097 12.699 16.102 0 28.956-13.908 27.203-30.367-1.347-12.689-11.595-22.886-24.286-24.209z" fill="#f6f9f9"/></g><g><g><path d="m467.988 234.751c-1.351-12.688-11.598-22.885-24.289-24.208-2.555-.266-5.045-.177-7.431.221-2.263.378-4.114-1.79-3.474-3.993.705-2.424 1.084-4.988 1.084-7.64 0-15.113-12.251-27.364-27.364-27.364-.01 0-.02 0-.031 0-1.599.002-2.983-1.139-3.178-2.727-1.773-14.417-14.752-25.366-29.961-23.85-3.279.327-6.392 1.266-9.244 2.675 8.087 3.991 13.919 11.855 15.065 21.175.195 1.587 1.578 2.729 3.178 2.727h.031c15.113 0 27.364 12.251 27.364 27.364 0 2.652-.379 5.215-1.084 7.64-.641 2.203 1.211 4.371 3.474 3.993 2.386-.398 4.877-.487 7.431-.221 12.691 1.323 22.938 11.52 24.289 24.208 1.281 12.029-5.244 22.687-15.133 27.558 3.641 1.795 7.735 2.809 12.07 2.809 16.102 0 28.955-13.908 27.203-30.367z" fill="#dae7ef"/></g></g><g><path d="m455.647 252.851h-205.404c-7.183 0-12.751 6.28-11.89 13.412l24.329 201.596c.726 6.016 5.831 10.542 11.89 10.542h156.745c6.06 0 11.164-4.526 11.89-10.542l24.329-201.596c.862-7.132-4.706-13.412-11.889-13.412z" fill="#dd5790"/></g><path d="m455.647 252.851h-17.09l-22.653 187.704c-.726 6.016-5.831 10.542-11.89 10.542h-143.355l2.023 16.762c.726 6.016 5.831 10.542 11.89 10.542h156.745c6.06 0 11.164-4.526 11.89-10.542l24.329-201.596c.862-7.132-4.706-13.412-11.889-13.412z" fill="#da387d"/><ellipse cx="353.634" cy="355.13" fill="#f6f9f9" rx="59.682" ry="42.783"/><g><path d="m235.257 171.545c2.314 0 4.628-.609 6.737-1.827l58.577-33.82c4.218-2.436 6.737-6.797 6.737-11.669s-2.519-9.233-6.737-11.669l-58.577-33.819c-4.218-2.437-9.255-2.437-13.474 0-4.218 2.435-6.737 6.797-6.737 11.668v67.639c0 4.871 2.519 9.234 6.737 11.669 2.11 1.22 4.423 1.828 6.737 1.828zm1.497-78.541 54.086 31.226-54.086 31.227z"/><circle cx="310.166" cy="214.687" r="9.602"/><ellipse cx="349.851" cy="225.354" rx="9.602" ry="9.602" transform="matrix(.987 -.16 .16 .987 -31.58 58.95)"/><path d="m484.554 26.114h-399.68c-4.134 0-7.485 3.351-7.485 7.485s3.351 7.485 7.485 7.485h399.68c6.879 0 12.476 5.596 12.476 12.476v114.861c0 4.135 3.351 7.485 7.485 7.485s7.485-3.351 7.485-7.485v-114.861c0-15.133-12.312-27.446-27.446-27.446z"/><path d="m504.515 200.136c-4.134 0-7.485 3.351-7.485 7.485v81.533h-24.715l2.654-21.995c.569-4.712-.624-9.441-3.275-13.316 3.154-6.058 4.476-12.952 3.738-19.885-1.725-16.193-14.744-29.172-30.958-30.862-1.105-.115-2.211-.178-3.315-.19.135-1.25.204-2.512.204-3.777 0-17.996-13.713-32.85-31.27-34.663-3.897-16.966-19.685-28.502-37.49-26.726-15.587 1.556-28.259 13.439-30.818 28.899-.21 1.269-.35 2.544-.422 3.82-.698-.042-1.398-.062-2.098-.062-8.725 0-17.024 3.24-23.397 9.02-6.372-5.78-14.671-9.02-23.397-9.02-18.537 0-33.739 14.547-34.791 32.825-4.235.929-8.271 2.646-11.882 5.044h-91.18c-3.302-12.207-14.468-21.216-27.705-21.216s-24.404 9.009-27.705 21.216h-21.235c-4.134 0-7.485 3.351-7.485 7.485s3.351 7.485 7.485 7.485h21.233c3.302 12.207 14.469 21.216 27.705 21.216s24.403-9.009 27.705-21.216h78.571c-2.218 5.034-3.219 10.567-2.86 16.267.311 4.932 1.7 9.729 4.029 14.088-2.771 3.92-4.016 8.756-3.435 13.568l2.654 21.995h-218.604v-235.594c0-6.879 5.596-12.476 12.476-12.476h19.93c4.134 0 7.485-3.351 7.485-7.485s-3.351-7.485-7.485-7.485h-19.93c-15.135 0-27.447 12.313-27.447 27.446v289.875c0 15.134 12.312 27.446 27.446 27.446h164.076v58.501h-22.597c-4.134 0-7.485 3.351-7.485 7.485 0 4.135 3.351 7.485 7.485 7.485h83.381l2.945 24.403c1.178 9.765 9.484 17.13 19.322 17.13h156.745c9.837 0 18.143-7.364 19.322-17.13l11.812-97.874h22.103c15.134 0 27.446-12.313 27.446-27.446v-135.813c-.001-4.135-3.352-7.486-7.486-7.486zm-239.43 17.25c4.645.384 8.715-4.164 7.802-8.746-2.192-11.981 7.402-23.386 19.582-23.272 5.897 0 11.454 2.596 15.246 7.12 3.987 5.011 12.315 5.01 16.302.002 4.665-5.647 12.354-8.256 19.489-6.67 6.831 1.672 13.739-4.489 12.866-11.466-1.231-10.576 7.132-20.759 17.715-21.716 10.881-1.093 20.462 6.52 21.789 17.314.652 5.304 5.208 9.3 10.625 9.3h.013c10.961 0 19.878 8.917 19.878 19.878 0 1.889-.265 3.756-.786 5.55-2.346 7.193 4.458 14.947 11.894 13.467 10.989-2.008 22.002 6.263 23.044 17.397.374 3.511-.183 6.99-1.55 10.138-1.099-.193-2.215-.316-3.347-.316h-205.404c-1.059 0-2.103.113-3.135.282-1.051-2.23-1.685-4.63-1.84-7.084-.35-5.569 1.547-10.862 5.343-14.904 3.799-4.046 8.945-6.274 14.474-6.274zm127.571 253.529 2.614-76.782c1.425-.865 2.817-1.768 4.154-2.727 8.171-5.857 14.07-12.998 17.404-20.86l-6.728 100.369zm-96.867 0-6.727-100.368c3.334 7.862 9.234 15.002 17.404 20.859 1.338.959 2.73 1.862 4.155 2.727l2.614 76.782zm57.156-80.571c-28.717 0-52.08-15.797-52.08-35.214s23.363-35.214 52.08-35.214 52.08 15.797 52.08 35.214-23.363 35.214-52.08 35.214zm7.485-85.082v-44.926h24.417l-1.7 49.928c-7.065-2.65-14.739-4.347-22.717-5.002zm-14.97 0c-7.978.655-15.651 2.352-22.716 5.002l-1.7-49.928h24.417v44.926zm-39.397-44.926 1.957 57.454c-.521.351-1.047.698-1.555 1.063-9.857 7.066-16.415 15.996-19.139 25.814l-5.653-84.331zm19.772 140.743c6.192 2.032 12.796 3.357 19.624 3.918v65.918h-17.246zm34.595 3.918c6.828-.561 13.432-1.885 19.625-3.918l-2.378 69.836h-17.247zm58.134-60.328c-2.723-9.819-9.282-18.75-19.139-25.816-.508-.364-1.034-.711-1.555-1.062l1.956-57.454h24.39zm-291.653-115.187c-7.571 0-13.731-6.16-13.731-13.731s6.16-13.731 13.731-13.731 13.731 6.16 13.731 13.731-6.16 13.731-13.731 13.731zm-111.94 113.954v-39.31h220.412l6.25 51.786h-214.187c-6.879-.001-12.475-5.597-12.475-12.476zm191.522 85.947v-58.501h36.946l7.06 58.501zm63.621 37.58-24.329-201.596c-.211-1.746.598-2.953 1.099-3.519.5-.564 1.603-1.512 3.36-1.512h16.426l14.115 210.579h-6.211c-2.271 0-4.189-1.699-4.46-3.952zm165.663 0c-.272 2.253-2.189 3.952-4.459 3.952h-6.211l14.115-210.579h16.425c1.758 0 2.86.947 3.36 1.512.501.565 1.309 1.773 1.099 3.519zm48.777-111.052h-20.296l6.25-51.786h26.522v39.31c-.001 6.88-5.597 12.476-12.476 12.476z"/></g></g></svg>